<svg xmlns="http://www.w3.org/2000/svg" xmlns:xlink="http://www.w3.org/1999/xlink" fill="none" stroke="none" stroke-linecap="square" stroke-miterlimit="10" version="1.1" viewBox="0 0 960 720"><clipPath id="p.0"><path d="m0 0l960.0 0l0 720.0l-960.0 0l0 -720.0z" clip-rule="nonzero"/></clipPath><g clip-path="url(#p.0)"><path fill="#000" fill-opacity="0" fill-rule="evenodd" d="m0 0l960.0 0l0 720.0l-960.0 0z"/><path fill="red" fill-rule="evenodd" d="m28.593176 221.3727l0 0c0 -16.50766 15.321028 -29.889755 34.220474 -29.889755l0 0c18.899448 0 34.22047 13.382095 34.22047 29.889755l0 0c0 16.507675 -15.321022 29.88977 -34.22047 29.88977l0 0c-18.899445 0 -34.220474 -13.382095 -34.220474 -29.88977z"/><path fill-rule="evenodd" stroke="red" stroke-linecap="butt" stroke-linejoin="round" stroke-width="1" d="m28.593176 221.3727l0 0c0 -16.50766 15.321028 -29.889755 34.220474 -29.889755l0 0c18.899448 0 34.22047 13.382095 34.22047 29.889755l0 0c0 16.507675 -15.321022 29.88977 -34.22047 29.88977l0 0c-18.899445 0 -34.220474 -13.382095 -34.220474 -29.88977z"/><path fill="#20124d" fill-rule="evenodd" d="m79.71129 475.6378l0 0c0 -16.50766 15.321022 -29.88977 34.220467 -29.88977l0 0c18.899452 0 34.22048 13.382111 34.22048 29.88977l0 0c0 16.50766 -15.32103 29.88977 -34.22048 29.88977l0 0c-18.899445 0 -34.220467 -13.382111 -34.220467 -29.88977z"/><path fill-rule="evenodd" stroke="#20124d" stroke-linecap="butt" stroke-linejoin="round" stroke-width="1" d="m79.71129 475.6378l0 0c0 -16.50766 15.321022 -29.88977 34.220467 -29.88977l0 0c18.899452 0 34.22048 13.382111 34.22048 29.88977l0 0c0 16.50766 -15.32103 29.88977 -34.22048 29.88977l0 0c-18.899445 0 -34.220467 -13.382111 -34.220467 -29.88977z"/><path fill="#f1c232" fill-rule="evenodd" d="m587.30707 51.377953l0 0c0 -16.50766 15.321045 -29.889763 34.22052 -29.889763l0 0c18.899414 0 34.22046 13.382103 34.22046 29.889763l0 0c0 16.50766 -15.321045 29.889763 -34.22046 29.889763l0 0c-18.899475 0 -34.22052 -13.382103 -34.22052 -29.889763z"/><path fill-rule="evenodd" stroke="#f1c232" stroke-linecap="butt" stroke-linejoin="round" stroke-width="1" d="m587.30707 51.377953l0 0c0 -16.50766 15.321045 -29.889763 34.22052 -29.889763l0 0c18.899414 0 34.22046 13.382103 34.22046 29.889763l0 0c0 16.50766 -15.321045 29.889763 -34.22046 29.889763l0 0c-18.899475 0 -34.22052 -13.382103 -34.22052 -29.889763z"/><path fill="#0f0" fill-rule="evenodd" d="m389.3727 655.7979l0 0c0 -16.50769 15.321014 -29.88977 34.22046 -29.88977l0 0c18.899445 0 34.22049 13.38208 34.22049 29.88977l0 0c0 16.50763 -15.321045 29.88977 -34.22049 29.88977l0 0c-18.899445 0 -34.22046 -13.382141 -34.22046 -29.88977z"/><path fill-rule="evenodd" stroke="#0f0" stroke-linecap="butt" stroke-linejoin="round" stroke-width="1" d="m389.3727 655.7979l0 0c0 -16.50769 15.321014 -29.88977 34.22046 -29.88977l0 0c18.899445 0 34.22049 13.38208 34.22049 29.88977l0 0c0 16.50763 -15.321045 29.88977 -34.22049 29.88977l0 0c-18.899445 0 -34.22046 -13.382141 -34.22046 -29.88977z"/><path fill="#90f" fill-rule="evenodd" d="m880.16797 275.8399l0 0c0 -16.50766 15.321045 -29.88977 34.22046 -29.88977l0 0c18.899475 0 34.22052 13.382111 34.22052 29.88977l0 0c0 16.50766 -15.321045 29.88974 -34.22052 29.88974l0 0c-18.899414 0 -34.22046 -13.38208 -34.22046 -29.88974z"/><path fill-rule="evenodd" stroke="#90f" stroke-linecap="butt" stroke-linejoin="round" stroke-width="1" d="m880.16797 275.8399l0 0c0 -16.50766 15.321045 -29.88977 34.22046 -29.88977l0 0c18.899475 0 34.22052 13.382111 34.22052 29.88977l0 0c0 16.50766 -15.321045 29.88974 -34.22052 29.88974l0 0c-18.899414 0 -34.22046 -13.38208 -34.22046 -29.88974z"/><path fill="#0ff" fill-rule="evenodd" d="m800.4619 475.6378l0 0c0 -16.50766 15.321045 -29.88977 34.22052 -29.88977l0 0c18.899414 0 34.22046 13.382111 34.22046 29.88977l0 0c0 16.50766 -15.321045 29.88977 -34.22046 29.88977l0 0c-18.899475 0 -34.22052 -13.382111 -34.22052 -29.88977z"/><path fill-rule="evenodd" stroke="#0ff" stroke-linecap="butt" stroke-linejoin="round" stroke-width="1" d="m800.4619 475.6378l0 0c0 -16.50766 15.321045 -29.88977 34.22052 -29.88977l0 0c18.899414 0 34.22046 13.382111 34.22046 29.88977l0 0c0 16.50766 -15.321045 29.88977 -34.22046 29.88977l0 0c-18.899475 0 -34.22052 -13.382111 -34.22052 -29.88977z"/><path fill="#f90" fill-rule="evenodd" d="m297.17584 51.377953l0 0c0 -16.50766 15.321045 -29.889763 34.22049 -29.889763l0 0c18.899445 0 34.22046 13.382103 34.22046 29.889763l0 0c0 16.50766 -15.321014 29.889763 -34.22046 29.889763l0 0c-18.899445 0 -34.22049 -13.382103 -34.22049 -29.889763z"/><path fill-rule="evenodd" stroke="#f90" stroke-linecap="butt" stroke-linejoin="round" stroke-width="1" d="m297.17584 51.377953l0 0c0 -16.50766 15.321045 -29.889763 34.22049 -29.889763l0 0c18.899445 0 34.22046 13.382103 34.22046 29.889763l0 0c0 16.50766 -15.321014 29.889763 -34.22046 29.889763l0 0c-18.899445 0 -34.22049 -13.382103 -34.22049 -29.889763z"/><path fill="#000" fill-opacity="0" fill-rule="evenodd" d="m331.39633 81.267715l479.08658 373.22833"/><path fill-rule="evenodd" stroke="#f90" stroke-linecap="butt" stroke-linejoin="round" stroke-width="3" d="m331.39633 81.267715l464.887 362.16626"/><path fill="#f90" fill-rule="evenodd" stroke="#f90" stroke-linecap="butt" stroke-width="3" d="m793.23804 447.34296l13.785156 4.4578247l-7.694641 -12.275818z"/><path fill="#000" fill-opacity="0" fill-rule="evenodd" d="m331.39633 81.267715l92.188965 544.62994"/><path fill-rule="evenodd" stroke="#f90" stroke-linecap="butt" stroke-linejoin="round" stroke-width="3" d="m331.39633 81.267715l89.184875 526.8824"/><path fill="#f90" fill-rule="evenodd" stroke="#f90" stroke-linecap="butt" stroke-width="3" d="m415.6955 608.9771l7.1578674 12.596313l2.6135254 -14.250305z"/><path fill="#000" fill-opacity="0" fill-rule="evenodd" d="m331.39633 81.267715l255.90549 -29.889763"/><path fill-rule="evenodd" stroke="#f90" stroke-linecap="butt" stroke-linejoin="round" stroke-width="3" d="m331.39633 81.267715l238.02707 -27.80156"/><path fill="#f90" fill-rule="evenodd" stroke="#f90" stroke-linecap="butt" stroke-width="3" d="m569.9982 58.387897l12.94751 -6.501152l-14.097229 -3.342327z"/><path fill="#000" fill-opacity="0" fill-rule="evenodd" d="m621.5276 81.267715l268.66138 173.44882"/><path fill-rule="evenodd" stroke="#f1c232" stroke-linecap="butt" stroke-linejoin="round" stroke-width="3" d="m621.5276 81.267715l253.53912 163.68582"/><path fill="#f1c232" fill-rule="evenodd" stroke="#f1c232" stroke-linecap="butt" stroke-width="3" d="m872.379 249.11653l14.125366 3.2212372l-8.750061 -11.547241z"/><path fill="#000" fill-opacity="0" fill-rule="evenodd" d="m621.5276 81.267715l188.94482 373.22833"/><path fill-rule="evenodd" stroke="#f1c232" stroke-linecap="butt" stroke-linejoin="round" stroke-width="3" d="m621.5276 81.267715l180.81482 357.16895"/><path fill="#f1c232" fill-rule="evenodd" stroke="#f1c232" stroke-linecap="butt" stroke-width="3" d="m797.9215 440.67477l10.570068 9.908417l-1.7281494 -14.3845825z"/><path fill="#000" fill-opacity="0" fill-rule="evenodd" d="m621.5276 81.267715l-197.9213 544.62994"/><path fill-rule="evenodd" stroke="#f1c232" stroke-linecap="butt" stroke-linejoin="round" stroke-width="3" d="m621.5276 81.267715l-191.77338 527.7124"/><path fill="#f1c232" fill-rule="evenodd" stroke="#f1c232" stroke-linecap="butt" stroke-width="3" d="m425.09702 607.28766l0.007232666 14.488037l9.30719 -11.103149z"/><path fill="#000" fill-opacity="0" fill-rule="evenodd" d="m890.1909 296.97516l-31.307068 157.51181"/><path fill-rule="evenodd" stroke="#90f" stroke-linecap="butt" stroke-linejoin="round" stroke-width="3" d="m890.1909 296.97516l-27.798035 139.85715"/><path fill="#90f" fill-rule="evenodd" stroke="#90f" stroke-linecap="butt" stroke-width="3" d="m857.5328 435.8663l2.2060547 14.319092l7.514221 -12.387085z"/><path fill="#000" fill-opacity="0" fill-rule="evenodd" d="m890.1909 296.97516l-466.58267 328.9449"/><path fill-rule="evenodd" stroke="#90f" stroke-linecap="butt" stroke-linejoin="round" stroke-width="3" d="m890.1909 296.97516l-451.8712 318.57318"/><path fill="#90f" fill-rule="evenodd" stroke="#90f" stroke-linecap="butt" stroke-width="3" d="m435.46448 611.4984l-8.27179 11.894531l13.982239 -3.7947388z"/><path fill="#000" fill-opacity="0" fill-rule="evenodd" d="m890.1909 296.97516l-742.04724 178.67715"/><path fill-rule="evenodd" stroke="#90f" stroke-linecap="butt" stroke-linejoin="round" stroke-width="3" d="m890.1909 296.97516l-724.5474 174.46338"/><path fill="#90f" fill-rule="evenodd" stroke="#90f" stroke-linecap="butt" stroke-width="3" d="m164.4835 466.62103l-12.075989 8.004578l14.395996 1.6304321z"/><path fill="#000" fill-opacity="0" fill-rule="evenodd" d="m810.48486 496.77304l-362.70865 137.8898"/><path fill-rule="evenodd" stroke="#0ff" stroke-linecap="butt" stroke-linejoin="round" stroke-width="3" d="m810.4849 496.77304l-345.88354 131.49338"/><path fill="#0ff" fill-rule="evenodd" stroke="#0ff" stroke-linecap="butt" stroke-width="3" d="m462.8405 623.63464l-10.964844 9.469666l14.486542 -0.20611572z"/><path fill="#000" fill-opacity="0" fill-rule="evenodd" d="m810.48486 496.77304l-662.3307 -21.13385"/><path fill-rule="evenodd" stroke="#0ff" stroke-linecap="butt" stroke-linejoin="round" stroke-width="3" d="m810.4849 496.77304l-644.3399 -20.559784"/><path fill="#0ff" fill-rule="evenodd" stroke="#0ff" stroke-linecap="butt" stroke-width="3" d="m166.30305 471.26056l-13.765396 4.5184937l13.449326 5.3868713z"/><path fill="#000" fill-opacity="0" fill-rule="evenodd" d="m810.48486 496.77304l-723.46454 -254.2677"/><path fill-rule="evenodd" stroke="#0ff" stroke-linecap="butt" stroke-linejoin="round" stroke-width="3" d="m810.4849 496.77304l-706.4829 -248.29935"/><path fill="#0ff" fill-rule="evenodd" stroke="#0ff" stroke-linecap="butt" stroke-width="3" d="m105.64506 243.79883l-14.487137 0.16070557l11.201088 9.189041z"/><path fill="#000" fill-opacity="0" fill-rule="evenodd" d="m138.12929 454.50253l-92.157486 -208.53543"/><path fill-rule="evenodd" stroke="#20124d" stroke-linecap="butt" stroke-linejoin="round" stroke-width="3" d="m138.12929 454.50253l-84.881615 -192.07147"/><path fill="#20124d" fill-rule="evenodd" stroke="#20124d" stroke-linecap="butt" stroke-width="3" d="m57.780014 260.4281l-10.035442 -10.449539l0.97076035 14.45546z"/><path fill="#000" fill-opacity="0" fill-rule="evenodd" d="m399.39566 634.66266l-336.56696 -383.40158"/><path fill-rule="evenodd" stroke="#0f0" stroke-linecap="butt" stroke-linejoin="round" stroke-width="3" d="m399.39563 634.66266l-324.69205 -369.8743"/><path fill="#0f0" fill-rule="evenodd" stroke="#0f0" stroke-linecap="butt" stroke-width="3" d="m78.42749 261.51935l-12.70546 -6.9623413l5.257637 13.500366z"/><path fill="#000" fill-opacity="0" fill-rule="evenodd" d="m399.39566 634.66266l-92.188995 -562.1417"/><path fill-rule="evenodd" stroke="#0f0" stroke-linecap="butt" stroke-linejoin="round" stroke-width="3" d="m399.39563 634.66266l-89.27594 -544.379"/><path fill="#0f0" fill-rule="evenodd" stroke="#0f0" stroke-linecap="butt" stroke-width="3" d="m315.00955 89.48172l-7.093109 -12.632912l-2.6866455 14.236748z"/><path fill="#000" fill-opacity="0" fill-rule="evenodd" d="m415.38913 650.66284l-277.25983 -153.8898"/><path fill-rule="evenodd" stroke="#0f0" stroke-linecap="butt" stroke-linejoin="round" stroke-width="3" d="m415.38916 650.66284l-261.52158 -145.15445"/><path fill="#0f0" fill-rule="evenodd" stroke="#0f0" stroke-linecap="butt" stroke-width="3" d="m156.27231 501.1758l-14.30838 -2.2743835l9.498901 10.939545z"/><path fill="#000" fill-opacity="0" fill-rule="evenodd" d="m138.12929 454.50253l169.07088 -381.98425"/><path fill-rule="evenodd" stroke="#20124d" stroke-linecap="butt" stroke-linejoin="round" stroke-width="3" d="m138.12929 454.50253l161.78557 -365.52448"/><path fill="#20124d" fill-rule="evenodd" stroke="#20124d" stroke-linecap="butt" stroke-width="3" d="m304.44604 90.983635l0.9790344 -14.45491l-10.041412 10.443787z"/><path fill="#000" fill-opacity="0" fill-rule="evenodd" d="m138.12929 454.50253l459.2126 -381.98425"/><path fill-rule="evenodd" stroke="#20124d" stroke-linecap="butt" stroke-linejoin="round" stroke-width="3" d="m138.12929 454.50253l445.3744 -370.47327"/><path fill="#20124d" fill-rule="evenodd" stroke="#20124d" stroke-linecap="butt" stroke-width="3" d="m586.6725 87.8388l7.2977295 -12.515854l-13.635376 4.89682z"/><path fill="#000" fill-opacity="0" fill-rule="evenodd" d="m87.01118 200.23744l220.189 -127.71653"/><path fill-rule="evenodd" stroke="red" stroke-linecap="butt" stroke-linejoin="round" stroke-width="3" d="m87.01118 200.23746l204.61862 -118.68525"/><path fill="red" fill-rule="evenodd" stroke="red" stroke-linecap="butt" stroke-width="3" d="m294.11603 85.83855l9.290405 -11.117157l-14.262848 2.5444794z"/><path fill="#000" fill-opacity="0" fill-rule="evenodd" d="m87.01118 200.23744l510.3307 -127.71653"/><path fill-rule="evenodd" stroke="red" stroke-linecap="butt" stroke-linejoin="round" stroke-width="3" d="m87.01118 200.23746l492.86926 -123.34659"/><path fill="red" fill-rule="evenodd" stroke="red" stroke-linecap="butt" stroke-width="3" d="m581.08344 81.697815l12.003967 -8.11216l-14.409973 -1.5017395z"/><path fill="#000" fill-opacity="0" fill-rule="evenodd" d="m87.01118 200.23744l793.16534 75.59056"/><path fill-rule="evenodd" stroke="red" stroke-linecap="butt" stroke-linejoin="round" stroke-width="3" d="m87.01118 200.23746l775.2465 73.88284"/><path fill="red" fill-rule="evenodd" stroke="red" stroke-linecap="butt" stroke-width="3" d="m861.7876 279.05313l14.02301 -3.6412048l-13.082825 -6.2244873z"/></g></svg>